<svg width="51" height="43" viewBox="0 0 51 43" fill="none" xmlns="http://www.w3.org/2000/svg">
<path d="M45.4827 10.6224C45.5135 11.0856 45.5135 11.5483 45.5135 12.0156C45.5135 26.2515 35.0561 42.67 15.9349 42.67V42.6618C10.286 42.67 4.75424 40.9931 0 37.8314C0.821408 37.934 1.64678 37.9853 2.47412 37.9873C7.15599 37.9912 11.7032 36.3638 15.3851 33.3666C13.2158 33.3241 11.1135 32.5802 9.37214 31.2387C7.63082 29.8972 6.33752 28.0253 5.67306 25.8848C7.23156 26.1965 8.83716 26.1321 10.3668 25.6989C5.5167 24.6835 2.02759 20.2675 2.02759 15.1389V15.0023C3.47339 15.837 5.09156 16.2995 6.74584 16.3508C2.17723 13.1869 0.769947 6.88905 3.52829 1.96556C6.13815 5.29383 9.39437 8.01592 13.0855 9.95502C16.7765 11.8941 20.8199 13.0069 24.953 13.221C24.541 11.3825 24.602 9.46417 25.1298 7.6578C25.6576 5.85143 26.6338 4.22033 27.9607 2.92761C32.1477 -1.15157 38.7329 -0.94234 42.6685 3.39489C44.9966 2.91848 47.2292 2.03385 49.2702 0.779097C48.4941 3.27374 46.8702 5.39135 44.7004 6.73808C46.7612 6.48627 48.7736 5.91439 50.67 5.04166C49.2749 7.20684 47.5183 9.0967 45.4827 10.6224Z" fill="#1D9BF0"/>
</svg>
