<svg width="50" height="50" viewBox="0 0 50 50" fill="none" xmlns="http://www.w3.org/2000/svg">
<circle cx="25" cy="25" r="25" fill="#DA5353"/>
<path fill-rule="evenodd" clip-rule="evenodd" d="M29.6877 34.9674C28.2477 34.9144 24.1667 34.3504 19.8927 30.0774C15.6197 25.8034 15.0567 21.7234 15.0027 20.2824C14.9227 18.0864 16.6047 15.9534 18.5477 15.1204C18.7817 15.0194 19.0379 14.9809 19.2913 15.0088C19.5446 15.0367 19.7863 15.13 19.9927 15.2794C21.5927 16.4454 22.6967 18.2094 23.6447 19.5964C23.8533 19.9012 23.9425 20.272 23.8953 20.6382C23.8481 21.0045 23.6678 21.3406 23.3887 21.5824L21.4377 23.0314C21.3435 23.0995 21.2771 23.1995 21.251 23.3128C21.2249 23.4261 21.2408 23.545 21.2957 23.6474C21.7377 24.4504 22.5237 25.6464 23.4237 26.5464C24.3247 27.4464 25.5767 28.2844 26.4357 28.7764C26.5434 28.8369 26.6702 28.8538 26.79 28.8237C26.9098 28.7935 27.0135 28.7187 27.0797 28.6144L28.3497 26.6814C28.5832 26.3713 28.9277 26.1635 29.3109 26.1016C29.6942 26.0397 30.0865 26.1285 30.4057 26.3494C31.8127 27.3234 33.4547 28.4084 34.6567 29.9474C34.8184 30.1553 34.9212 30.4029 34.9544 30.6641C34.9877 30.9253 34.9501 31.1907 34.8457 31.4324C34.0087 33.3854 31.8907 35.0484 29.6877 34.9674Z" fill="white"/>
</svg>
