<svg width="50" height="50" viewBox="0 0 50 50" fill="none" xmlns="http://www.w3.org/2000/svg">
<circle cx="25" cy="25" r="25" fill="#DA5353"/>
<path d="M25 13C20.035 13 16 17.035 16 22C16 25.03 17.755 27.565 19.795 29.335C20.44 29.89 21.565 30.775 22.57 32.08C23.68 33.535 24.685 35.095 25 36.145C25.315 35.095 26.32 33.535 27.43 32.08C28.435 30.775 29.56 29.89 30.205 29.335C32.245 27.565 34 25.03 34 22C34 17.035 29.965 13 25 13ZM25 16.84C25.6776 16.84 26.3486 16.9735 26.9746 17.2328C27.6007 17.4921 28.1695 17.8722 28.6487 18.3513C29.1278 18.8305 29.5079 19.3993 29.7672 20.0254C30.0265 20.6514 30.16 21.3224 30.16 22C30.16 22.6776 30.0265 23.3486 29.7672 23.9746C29.5079 24.6007 29.1278 25.1695 28.6487 25.6487C28.1695 26.1278 27.6007 26.5079 26.9746 26.7672C26.3486 27.0265 25.6776 27.16 25 27.16C23.6315 27.16 22.319 26.6164 21.3513 25.6487C20.3836 24.681 19.84 23.3685 19.84 22C19.84 20.6315 20.3836 19.319 21.3513 18.3513C22.319 17.3836 23.6315 16.84 25 16.84Z" fill="white"/>
</svg>
