<svg width="172" height="44" viewBox="0 0 172 44" fill="none" xmlns="http://www.w3.org/2000/svg">
<g clip-path="url(#clip0_200_96)">
<path d="M18.0752 4.91335C15.5484 5.18021 13.5009 7.11545 13.0479 9.66098C12.2545 9.39216 11.4351 9.28769 10.607 9.37514C9.09255 9.53508 7.70475 10.3008 6.74895 11.5039C5.79316 12.707 5.34765 14.2489 5.51044 15.7903C5.64976 17.0771 6.20378 18.2823 7.08601 19.2178C7.96824 20.1532 9.12902 20.7663 10.3871 20.9612L11.4812 31.3213L30.0401 29.3613L28.946 19.0012C31.388 18.0675 32.9142 15.5702 32.6349 12.9257C32.4721 11.3843 31.7144 9.96947 30.5283 8.99258C29.3423 8.0157 27.8252 7.55675 26.3107 7.71669C25.4827 7.80414 24.7032 8.07746 23.9834 8.5061C23.0087 6.11133 20.6021 4.64649 18.0752 4.91335ZM18.7425 18.066L20.1701 17.9152L21.2443 28.0864L19.8167 28.2372L18.7425 18.066ZM14.7666 21.4243L16.1942 21.2736L16.9615 28.5387L15.5339 28.6895L14.7666 21.4243ZM23.3322 20.5197L24.7598 20.369L25.5271 27.6341L24.0995 27.7849L23.3322 20.5197ZM11.6347 32.7743L11.7881 34.2274C11.8288 34.6127 12.0183 34.9664 12.3148 35.2107C12.6113 35.4549 12.9906 35.5696 13.3692 35.5296L29.0728 33.8712C29.4515 33.8312 29.7984 33.6398 30.0374 33.339C30.2763 33.0382 30.3877 32.6528 30.347 32.2674L30.1935 30.8144L11.6347 32.7743Z" fill="#FF1313"/>
</g>
<path d="M42.588 9.26C43.236 9.62 43.836 10.076 44.388 10.628C44.964 11.18 45.468 11.732 45.9 12.284C46.332 12.836 46.656 13.316 46.872 13.724L46.26 31.112C46.044 31.544 45.672 32.012 45.144 32.516C44.64 33.02 44.064 33.5 43.416 33.956C42.768 34.388 42.144 34.748 41.544 35.036C40.944 35.348 40.452 35.528 40.068 35.576L32.256 34.496L30.456 35.576C29.448 35.216 28.668 34.676 28.116 33.956L29.52 22.904L29.088 9.8L30.132 9.08C30.372 9.128 30.696 9.248 31.104 9.44C31.536 9.608 31.956 9.812 32.364 10.052C32.796 10.292 33.144 10.52 33.408 10.736C34.392 10.232 35.448 9.848 36.576 9.584C37.704 9.32 38.796 9.164 39.852 9.116C40.908 9.044 41.82 9.092 42.588 9.26ZM33.228 31.328L41.508 30.356C41.772 29.18 41.988 27.836 42.156 26.324C42.348 24.812 42.468 23.264 42.516 21.68C42.588 20.096 42.576 18.572 42.48 17.108C42.384 15.644 42.204 14.384 41.94 13.328C41.052 13.208 40.092 13.196 39.06 13.292C38.052 13.364 37.056 13.52 36.072 13.76C35.112 13.976 34.26 14.264 33.516 14.624L33.228 23.372V31.328ZM63.2908 29.348C63.4588 29.564 63.6388 29.984 63.8308 30.608C64.0468 31.232 64.1428 31.784 64.1188 32.264C63.0868 32.696 62.0068 33.128 60.8788 33.56C59.7508 33.968 58.6948 34.352 57.7108 34.712C56.7508 35.072 55.9588 35.36 55.3348 35.576C54.5908 35.384 53.8108 35.084 52.9948 34.676C52.1788 34.268 51.4348 33.788 50.7628 33.236C50.0908 32.66 49.6108 32.084 49.3228 31.508L49.8268 20.492C50.1628 19.892 50.6308 19.292 51.2308 18.692C51.8548 18.068 52.4668 17.504 53.0668 17C54.4588 16.688 55.8148 16.496 57.1348 16.424C58.4788 16.352 59.7628 16.412 60.9868 16.604C61.2028 16.724 61.4908 16.988 61.8508 17.396C62.2348 17.78 62.6068 18.176 62.9668 18.584C63.3268 18.992 63.5668 19.292 63.6868 19.484L63.5428 24.848C62.9188 25.304 62.0788 25.784 61.0228 26.288C59.9668 26.792 58.8028 27.284 57.5308 27.764C56.2588 28.22 54.9868 28.628 53.7148 28.988C53.7388 29.444 53.7748 29.888 53.8228 30.32C53.8708 30.752 53.9308 31.172 54.0028 31.58L63.2908 29.348ZM59.6908 20.312C58.8268 20.192 57.9868 20.156 57.1708 20.204C56.3548 20.252 55.5028 20.396 54.6148 20.636C54.3748 21.38 54.1828 22.184 54.0388 23.048C53.8948 23.912 53.7868 24.788 53.7148 25.676C54.7468 25.34 55.8268 24.908 56.9548 24.38C58.1068 23.828 59.1508 23.252 60.0868 22.652L59.6908 20.312ZM74.8738 30.356C75.0658 30.644 75.2698 31.052 75.4858 31.58C75.7258 32.108 75.8698 32.648 75.9178 33.2L71.0578 35.576C70.1698 35.168 69.3898 34.676 68.7178 34.1C68.0458 33.524 67.5418 32.924 67.2058 32.3L67.9618 20.492L68.2498 10.088L65.4418 10.808C65.2738 10.52 65.0698 10.124 64.8298 9.62C64.5898 9.092 64.4458 8.552 64.3978 8L69.2578 5.624C69.4978 5.648 69.8698 5.768 70.3738 5.984C70.9018 6.2 71.4178 6.452 71.9218 6.74C72.4258 7.028 72.7858 7.28 73.0018 7.496L71.4538 20.816L71.7418 31.184L74.8738 30.356ZM81.7068 14.372C80.4588 13.7 79.3308 12.812 78.3228 11.708C78.3468 11.324 78.5028 10.892 78.7908 10.412C79.1028 9.908 79.4628 9.452 79.8708 9.044C80.3028 8.612 80.7108 8.348 81.0948 8.252C81.4788 8.252 81.9108 8.408 82.3908 8.72C82.8708 9.008 83.3148 9.368 83.7228 9.8C84.1308 10.208 84.3708 10.604 84.4428 10.988C84.4188 11.396 84.2508 11.852 83.9388 12.356C83.6268 12.836 83.2668 13.268 82.8588 13.652C82.4508 14.012 82.0668 14.252 81.7068 14.372ZM85.6668 30.176C85.8348 30.464 86.0388 30.908 86.2788 31.508C86.5188 32.084 86.6628 32.648 86.7108 33.2L81.8508 35.576C80.0268 34.736 78.7788 33.656 78.1068 32.336L78.8628 21.032L76.2348 21.824C76.0668 21.536 75.8628 21.104 75.6228 20.528C75.3828 19.928 75.2388 19.352 75.1908 18.8L80.0508 16.424C80.2908 16.448 80.6388 16.58 81.0948 16.82C81.5508 17.06 81.9948 17.324 82.4268 17.612C82.8828 17.9 83.2308 18.14 83.4708 18.332L82.4628 26.252V31.148L85.6668 30.176ZM92.4278 31.544L100.96 29.456C101.128 29.672 101.296 30.092 101.464 30.716C101.656 31.34 101.74 31.892 101.716 32.372C100.708 32.804 99.6878 33.224 98.6558 33.632C97.6478 34.04 96.7118 34.412 95.8477 34.748C95.0078 35.084 94.3238 35.36 93.7958 35.576C93.0518 35.384 92.2718 35.084 91.4558 34.676C90.6398 34.268 89.8958 33.788 89.2238 33.236C88.5518 32.66 88.0718 32.084 87.7838 31.508L88.2878 20.492C88.6238 19.892 89.0918 19.292 89.6918 18.692C90.3158 18.068 90.9278 17.504 91.5278 17C92.9198 16.688 94.2758 16.496 95.5957 16.424C96.9398 16.352 98.2238 16.412 99.4478 16.604C99.7598 16.796 100.156 17.12 100.636 17.576C101.14 18.032 101.512 18.404 101.752 18.692L101.248 24.452C100.336 24.764 99.3398 24.764 98.2598 24.452L97.7918 20.276C96.9998 20.204 96.2198 20.192 95.4518 20.24C94.6838 20.288 93.8798 20.42 93.0398 20.636C92.7038 21.74 92.4638 22.94 92.3198 24.236C92.1758 25.508 92.1158 26.78 92.1398 28.052C92.1638 29.324 92.2598 30.488 92.4278 31.544ZM121.592 30.356C121.808 30.644 122.024 31.052 122.24 31.58C122.456 32.108 122.588 32.648 122.636 33.2L117.776 35.576C117.2 35.408 116.576 35.132 115.904 34.748C115.256 34.364 114.764 34.016 114.428 33.704L114.572 31.076C113.372 32.396 112.16 33.452 110.936 34.244C109.712 35.036 108.644 35.48 107.732 35.576C107.372 35.384 106.928 35.048 106.4 34.568C105.896 34.064 105.416 33.512 104.96 32.912C104.528 32.288 104.24 31.7 104.096 31.148L104.852 21.212C105.212 20.444 105.728 19.676 106.4 18.908C107.072 18.116 107.744 17.48 108.416 17C110.144 16.688 111.824 16.508 113.456 16.46C115.088 16.388 116.888 16.664 118.856 17.288C119.12 17.576 119.36 17.924 119.576 18.332C119.792 18.74 119.972 19.136 120.116 19.52C120.284 19.88 120.38 20.156 120.404 20.348C120.164 21.404 119.84 22.436 119.432 23.444C119.048 24.452 118.58 25.412 118.028 26.324L118.46 31.148L121.592 30.356ZM109.064 31.184C109.928 30.872 110.876 30.2 111.908 29.168C112.964 28.136 113.924 26.912 114.788 25.496L114.932 20.06C113.948 20.036 113 20.084 112.088 20.204C111.176 20.324 110.312 20.504 109.496 20.744C109.064 21.944 108.752 23.168 108.56 24.416C108.392 25.64 108.308 26.78 108.308 27.836C108.332 28.868 108.416 29.696 108.56 30.32C108.704 30.944 108.872 31.232 109.064 31.184ZM128.357 31.544L136.889 29.456C137.057 29.672 137.225 30.092 137.393 30.716C137.585 31.34 137.669 31.892 137.645 32.372C136.637 32.804 135.617 33.224 134.585 33.632C133.577 34.04 132.641 34.412 131.777 34.748C130.937 35.084 130.253 35.36 129.725 35.576C128.981 35.384 128.201 35.084 127.385 34.676C126.569 34.268 125.825 33.788 125.153 33.236C124.481 32.66 124.001 32.084 123.713 31.508L124.217 20.492C124.553 19.892 125.021 19.292 125.621 18.692C126.245 18.068 126.857 17.504 127.457 17C128.849 16.688 130.205 16.496 131.525 16.424C132.869 16.352 134.153 16.412 135.377 16.604C135.689 16.796 136.085 17.12 136.565 17.576C137.069 18.032 137.441 18.404 137.681 18.692L137.177 24.452C136.265 24.764 135.269 24.764 134.189 24.452L133.721 20.276C132.929 20.204 132.149 20.192 131.381 20.24C130.613 20.288 129.809 20.42 128.969 20.636C128.633 21.74 128.393 22.94 128.249 24.236C128.105 25.508 128.045 26.78 128.069 28.052C128.093 29.324 128.189 30.488 128.357 31.544ZM158.793 19.7C158.721 20.564 158.517 21.476 158.181 22.436C157.845 23.396 157.401 24.356 156.849 25.316L157.353 37.16C157.113 37.688 156.753 38.3 156.273 38.996C155.817 39.692 155.301 40.364 154.725 41.012C154.173 41.66 153.621 42.176 153.069 42.56C151.989 42.848 150.813 43.04 149.541 43.136C148.293 43.256 147.033 43.28 145.761 43.208C144.513 43.136 143.349 43.004 142.269 42.812C142.245 42.428 142.257 41.948 142.305 41.372C142.353 40.82 142.425 40.268 142.521 39.716C142.641 39.164 142.785 38.72 142.953 38.384C143.745 38.672 144.669 38.888 145.725 39.032C146.781 39.2 147.849 39.284 148.929 39.284C150.033 39.284 151.041 39.224 151.953 39.104C152.505 37.832 152.913 36.488 153.177 35.072C153.465 33.656 153.633 31.952 153.681 29.96C152.793 31.016 151.869 31.976 150.909 32.84C149.973 33.68 149.097 34.352 148.281 34.856C147.465 35.336 146.769 35.576 146.193 35.576C145.833 35.384 145.353 35.048 144.753 34.568C144.177 34.088 143.637 33.548 143.133 32.948C142.629 32.348 142.305 31.772 142.161 31.22L142.989 20.96L140.325 21.644C140.109 21.356 139.893 20.948 139.677 20.42C139.461 19.892 139.329 19.352 139.281 18.8L144.141 16.424C144.765 16.736 145.425 17.144 146.121 17.648C146.841 18.152 147.393 18.704 147.777 19.304C147.345 20.792 147.033 22.316 146.841 23.876C146.673 25.412 146.601 26.852 146.625 28.196C146.649 29.516 146.745 30.608 146.913 31.472C147.585 31.184 148.293 30.692 149.037 29.996C149.805 29.276 150.549 28.412 151.269 27.404C152.013 26.396 152.673 25.316 153.249 24.164L152.889 17.36C153.441 17.216 154.125 17.084 154.941 16.964C155.757 16.844 156.429 16.856 156.957 17C157.725 17.792 158.337 18.692 158.793 19.7Z" fill="#FF1313"/>
<defs>
<clipPath id="clip0_200_96">
<rect width="34.453" height="35.0666" fill="white" transform="translate(7.62939e-06 4.61841) rotate(-6.0286)"/>
</clipPath>
</defs>
</svg>
