<svg width="25" height="26" viewBox="0 0 25 26" fill="none" xmlns="http://www.w3.org/2000/svg">
<path fill-rule="evenodd" clip-rule="evenodd" d="M16.0128 0.613628C16.6046 0.49122 17.2663 0.450417 17.8895 0.578454C18.9998 0.805359 20.0284 1.42916 20.8431 2.36956C21.3733 2.38363 21.8954 2.257 22.3571 2.0769C22.8032 1.90084 23.2316 1.66438 23.6339 1.372L23.6443 1.36356C23.8118 1.22856 24.0126 1.16778 24.2129 1.19151C24.4131 1.21524 24.6005 1.32203 24.7431 1.49377C24.8857 1.66551 24.9749 1.89163 24.9954 2.13382C25.016 2.37601 24.9667 2.61935 24.856 2.82261C24.6153 3.26581 24.2792 4.05654 23.9036 4.94295L23.7234 5.36645C23.5083 5.87297 23.2873 6.38512 23.0815 6.8241C22.9524 7.09987 22.8141 7.37986 22.6745 7.62187V8.00738C22.6888 10.3129 22.3235 12.5988 21.5998 14.7317C20.8761 16.8646 19.8086 18.8017 18.4595 20.43C17.1105 22.0583 15.5069 23.3451 13.7424 24.2155C11.9779 25.0858 10.0877 25.5222 8.18235 25.4991C5.42118 25.5022 2.71811 24.5396 0.398461 22.7274C0.23266 22.5976 0.108161 22.4036 0.0453288 22.1771C-0.0175031 21.9506 -0.0149478 21.705 0.0525766 21.4804C0.120101 21.2559 0.248597 21.0658 0.417045 20.9411C0.585493 20.8164 0.783921 20.7646 0.979869 20.7941C2.58208 21.0259 4.20596 20.7131 5.66951 19.8909C4.95546 19.4981 4.31684 18.9297 3.79431 18.2219C3.27179 17.514 2.87682 16.6823 2.63456 15.7796C2.58839 15.6068 2.57987 15.4225 2.60982 15.2445C2.63976 15.0666 2.70716 14.901 2.80549 14.7638L2.81712 14.7497C2.22686 14.1134 1.7538 13.334 1.42866 12.4621C1.10353 11.5902 0.933583 10.6453 0.929868 9.68874V9.61558C0.929782 9.38392 0.9927 9.15867 1.10891 8.97457C1.22512 8.79047 1.38817 8.65776 1.57291 8.59691C1.17915 7.64626 0.974851 6.59725 0.976381 5.53389C0.97572 4.32833 1.23633 3.14364 1.73221 2.09801C1.80266 1.94957 1.9019 1.8241 2.02136 1.73242C2.14082 1.64074 2.27692 1.5856 2.41792 1.57175C2.55892 1.5579 2.70059 1.58576 2.83071 1.65293C2.96083 1.7201 3.07549 1.82456 3.1648 1.95731C5.19879 4.98929 8.1128 6.96714 11.3115 7.48679C11.2837 6.22076 11.5477 4.97035 12.0738 3.87551C12.6 2.78067 13.3675 1.8846 14.2906 1.28758C14.7581 0.986482 15.3767 0.745886 16.0139 0.613628H16.0128ZM2.89852 11.2336C3.12432 12.0026 3.51125 12.6874 4.02143 13.2211C4.53162 13.7548 5.14758 14.1191 5.80904 14.2784C5.99962 14.3243 6.17205 14.4459 6.29898 14.624C6.42592 14.802 6.50008 15.0262 6.50969 15.261C6.51931 15.4959 6.46383 15.7279 6.35207 15.9202C6.2403 16.1125 6.07865 16.2542 5.89277 16.3227C5.57648 16.4395 5.25206 16.5197 4.92298 16.5661C5.28025 17.1238 5.7362 17.5775 6.25736 17.894C6.77852 18.2105 7.35165 18.3818 7.93467 18.3952C8.11451 18.3993 8.2889 18.4706 8.43395 18.5993C8.579 18.728 8.68761 18.9078 8.74491 19.1141C8.80221 19.3204 8.80539 19.5431 8.75402 19.7517C8.70264 19.9602 8.59923 20.1445 8.45794 20.2792C7.24541 21.4336 5.83634 22.2481 4.33227 22.664C5.57749 23.1463 6.87723 23.3908 8.18468 23.3886H8.19514C9.86961 23.41 11.5308 23.0274 13.0817 22.2631C14.6326 21.4989 16.042 20.3683 17.2277 18.9374C18.4133 17.5066 19.3514 15.8042 19.9872 13.9297C20.6229 12.0552 20.9435 10.0462 20.9303 8.02005V7.2673C20.9301 7.01108 21.007 6.76352 21.1466 6.57084C21.228 6.45969 21.3675 6.20362 21.5652 5.78292C21.7513 5.38615 21.9582 4.90777 22.1734 4.40266L22.2117 4.3098C21.6043 4.4752 20.9789 4.52128 20.3594 4.44628C20.1499 4.41867 19.9557 4.30022 19.8128 4.11282C19.2281 3.34556 18.4494 2.83486 17.5988 2.6608C17.1699 2.58738 16.7339 2.59927 16.3081 2.69598C15.8931 2.77415 15.4901 2.92735 15.1127 3.15044C14.3519 3.64233 13.7475 4.42591 13.3943 5.37826C13.0412 6.33062 12.9593 7.39786 13.1615 8.4126C13.1934 8.57216 13.194 8.73851 13.1634 8.89841C13.1327 9.05832 13.0717 9.20738 12.9851 9.33373C12.8985 9.46009 12.7888 9.56026 12.6646 9.62629C12.5404 9.69231 12.4051 9.72237 12.2697 9.71407C8.697 9.49541 5.31934 7.67638 2.79386 4.6109C2.7448 4.91544 2.72026 5.22502 2.7206 5.53529V5.53811C2.7193 6.313 2.87638 7.07627 3.17786 7.75993C3.47933 8.4436 3.91586 9.02645 4.44855 9.45659C4.60498 9.58398 4.72307 9.76929 4.78513 9.98474C4.84718 10.2002 4.84986 10.4342 4.79275 10.6516C4.73564 10.869 4.62183 11.0582 4.46837 11.1908C4.31491 11.3234 4.13007 11.3922 3.94156 11.387C3.59063 11.3752 3.2414 11.3248 2.89852 11.2336Z" fill="white"/>
</svg>
